<?xml version="1.0" standalone="no"?>
<!DOCTYPE svg PUBLIC "-//W3C//DTD SVG 20010904//EN"
 "http://www.w3.org/TR/2001/REC-SVG-20010904/DTD/svg10.dtd">
<svg version="1.0" xmlns="http://www.w3.org/2000/svg"
 width="260.000000pt" height="260.000000pt" viewBox="0 0 260.000000 260.000000"
 preserveAspectRatio="xMidYMid meet">
<metadata>
Boyan Levchev - full stack web developer - React, Javascript, Ruby, Rails, HTML, CSS and VR virtual reality
</metadata>
<g transform="translate(0.000000,260.000000) scale(0.100000,-0.100000)"
fill="#000000" stroke="none">
<path d="M894 1966 c-35 -16 -44 -32 -44 -81 0 -25 8 -40 31 -60 30 -25 35
-26 113 -20 47 4 87 2 95 -4 13 -8 13 -43 3 -253 -13 -265 -29 -384 -67 -505
-45 -142 -105 -203 -205 -207 -26 0 -51 2 -54 5 -4 3 -2 19 4 35 26 68 -17
133 -93 141 -121 14 -185 -108 -121 -235 46 -93 153 -140 299 -129 160 11 281
99 344 250 68 166 99 351 108 652 3 110 10 206 16 213 6 8 43 12 117 12 167 0
151 49 148 -467 -2 -339 -6 -435 -16 -445 -9 -9 -42 -13 -98 -13 -78 0 -87 -2
-105 -24 -27 -33 -24 -84 5 -118 22 -25 31 -28 83 -27 32 0 104 6 161 12 82 8
124 8 215 -4 130 -18 168 -13 197 23 23 29 25 60 8 97 -15 34 -38 41 -128 41
-69 0 -75 2 -87 25 -17 34 -19 860 -2 893 18 34 29 37 104 30 61 -5 73 -3 95
15 20 16 25 29 25 66 0 86 31 81 -523 81 -268 0 -512 4 -542 8 -40 5 -63 4
-86 -7z"/>
</g>
</svg>
